PathFileType  4	(X/Y/Z) C:\Users\antoi\Documents\MyRepositories\mobilecap\ResultsAnalysis
DataRate	CameraRate	NumFrames	NumMarkers	Units	OrigDataRate	OrigDataStartFrame	OrigNumFrames
100.0	100.0	5	51	mm	100.0	330	1318
Frame#	Time	r_knee			r_shank_antsup			r_ankle			r_calc			r_5meta			r_toe			L_knee			L_shank_antsup			L_ankle			L_calc			L_5meta			L_toe			r_sh2			r_sh3			r_sh4			L_sh2			L_sh3			r_thigh1			r_thigh2			r_thigh3			r_thigh4			r_thigh5			L_thigh1			L_thigh2			L_thigh3			L_thigh4			r.ASIS			r.PSIS			L.ASIS			L.PSIS			C7			R_Shoulder			L_Shoulder			R_Sternum			L_Sternum			R_humerus			R_elbow_med			R_elbow_lat			R_forearm			R_wrist_radius			R_wrist_ulna			L_humerus			L_elbow_med			L_elbow_lat			L_forearm			L_wrist_radius			L_wrist_ulna			R_HJC			L_HJC			R_HJC_reg			L_HJC_reg			
		X1	Y1	Z1	X2	Y2	Z2	X3	Y3	Z3	X4	Y4	Z4	X5	Y5	Z5	X6	Y6	Z6	X7	Y7	Z7	X8	Y8	Z8	X9	Y9	Z9	X10	Y10	Z10	X11	Y11	Z11	X12	Y12	Z12	X13	Y13	Z13	X14	Y14	Z14	X15	Y15	Z15	X16	Y16	Z16	X17	Y17	Z17	X18	Y18	Z18	X19	Y19	Z19	X20	Y20	Z20	X21	Y21	Z21	X22	Y22	Z22	X23	Y23	Z23	X24	Y24	Z24	X25	Y25	Z25	X26	Y26	Z26	X27	Y27	Z27	X28	Y28	Z28	X29	Y29	Z29	X30	Y30	Z30	X31	Y31	Z31	X32	Y32	Z32	X33	Y33	Z33	X34	Y34	Z34	X35	Y35	Z35	X36	Y36	Z36	X37	Y37	Z37	X38	Y38	Z38	X39	Y39	Z39	X40	Y40	Z40	X41	Y41	Z41	X42	Y42	Z42	X43	Y43	Z43	X44	Y44	Z44	X45	Y45	Z45	X46	Y46	Z46	X47	Y47	Z47	X48	Y48	Z48	X49	Y49	Z49	X50	Y50	Z50	X51	Y51	Z51	

330	3.29000000	-203.66417	495.27243	-423.03752	-159.83105	424.98697	-433.45289	-265.74884	97.09904	-417.54782	-336.29071	62.73314	-452.60793	-163.92415	45.32564	-383.15356	-116.86540	72.83433	-437.91194	-277.64026	499.29222	-927.42681	-237.38620	415.55214	-965.68574	-296.43964	104.46600	-1003.61645	-349.12759	57.98207	-955.04680	-193.27774	53.93238	-1053.28411	-148.47899	91.94409	-1012.73461	-194.24993	316.33801	-406.13263	-235.16872	448.52340	-405.66432	-264.43331	339.52458	-395.15071	-323.74121	424.13250	-941.10100	-333.17103	306.61175	-977.32035	-318.23661	798.02767	-439.86112	-262.23799	700.86381	-431.25436	-298.27949	657.51474	-395.19372	-413.55754	743.43541	-413.34024	-351.31835	644.06840	-406.18061	-383.86382	747.20564	-877.98659	-307.59644	635.20086	-905.55158	-465.71956	677.94033	-829.45835	-387.78506	569.89085	-874.95662	-307.62544	843.91216	-512.73356	-439.38859	978.09126	-585.25457	-329.46454	815.13653	-756.25932	-446.90851	977.75305	-682.25802	-189.42740	1260.73651	-670.06699	-89.63716	1237.21762	-517.95816	-96.58858	1227.77886	-820.98972	-64.74854	1180.70985	-645.04320	-58.75338	1181.81763	-673.66348	-52.56312	1174.66149	-414.25368	17.38776	971.38495	-354.28134	27.15800	1033.16642	-301.24737	86.64930	1108.92640	-399.53757	138.38894	1168.86850	-497.80407	172.77660	1166.58113	-487.13103	-49.94216	1164.52627	-900.96239	64.59316	954.88122	-920.73641	62.03589	1015.37591	-981.56419	97.63673	1086.46252	-907.01111	160.84697	1167.92319	-806.17993	192.08436	1165.75277	-821.57486	-415.55444	821.80207	-521.29962	-434.11600	806.67291	-726.37499	-411.82982	813.13187	-538.39635	-424.38816	812.56724	-700.39746	
331	3.30000000	-201.55586	494.50526	-420.65194	-157.73703	424.06810	-431.15260	-265.65651	96.85396	-417.45899	-336.28867	62.72871	-452.60699	-163.95949	45.20260	-383.09770	-116.87725	72.70473	-437.85206	-277.16017	499.94070	-928.16023	-237.39160	415.93492	-967.17894	-297.91524	104.79973	-1003.39982	-349.60802	57.62125	-954.75193	-194.68470	55.61930	-1054.63967	-149.83296	93.75205	-1014.08217	-193.07989	315.38589	-404.59058	-233.43335	448.11369	-403.58947	-263.24447	338.86609	-393.75893	-323.24234	424.74397	-941.17550	-333.55815	307.12523	-977.29753	-320.76605	795.55532	-436.64439	-263.43757	699.32256	-428.34991	-298.70769	655.30165	-392.20396	-415.33003	739.51704	-409.90697	-351.52216	641.07226	-402.97232	-387.32993	745.04475	-874.75764	-309.68213	635.19290	-904.98833	-468.21954	674.24594	-827.68513	-388.34592	568.09360	-874.07722	-311.22322	837.43407	-510.74345	-441.27677	973.07848	-582.47130	-333.06540	809.00123	-753.98431	-449.20075	972.75733	-679.53300	-185.98463	1250.73402	-667.68587	-85.18949	1225.86101	-516.45415	-92.12498	1216.50491	-817.97520	-62.42426	1168.16507	-643.19724	-60.09491	1167.68254	-673.32741	-47.57183	1164.70210	-412.74980	24.65480	962.31485	-352.97840	34.43927	1024.22700	-300.38605	92.33991	1100.27623	-399.37403	142.63635	1160.22511	-498.29211	177.08751	1158.38093	-487.95579	-45.77871	1154.40281	-897.91239	70.00396	945.92748	-918.75184	66.87195	1006.71941	-979.53356	102.07770	1077.55477	-904.29101	165.08761	1158.93358	-803.21899	196.27783	1157.14859	-818.89463	-419.14964	816.31246	-518.96190	-437.99325	801.69790	-724.05506	-415.18581	808.21061	-535.99116	-428.38745	807.67563	-697.72124	
332	3.31000000	-199.41201	493.69383	-418.09513	-155.38035	422.97559	-428.83983	-265.64800	96.71088	-417.28787	-336.30635	62.74009	-452.52017	-163.97608	45.08271	-382.96004	-116.91383	72.58963	-437.76235	-276.36417	500.54457	-928.96629	-237.16156	416.24046	-968.86211	-299.12496	105.15191	-1003.73278	-349.83851	57.40817	-954.50174	-196.08456	56.84218	-1056.47784	-151.05357	95.03672	-1016.07644	-191.80193	314.42198	-402.88528	-231.38319	447.40832	-401.51787	-261.81698	338.12239	-392.35356	-322.53967	425.17351	-941.46873	-333.72030	307.51828	-977.26058	-323.10379	792.84225	-433.20497	-264.62660	697.51981	-425.30599	-299.14022	652.76441	-389.27926	-417.07095	735.33033	-406.62306	-351.75366	637.91760	-399.78955	-391.00414	742.86044	-872.08137	-311.58803	635.19073	-904.27186	-470.43498	670.29532	-825.67662	-388.57402	566.25486	-873.42240	-314.50821	830.89934	-509.01626	-443.18010	967.98551	-579.70690	-336.51997	802.82879	-751.77810	-451.58308	967.52695	-676.80982	-182.68921	1240.73770	-665.23172	-80.94320	1214.40343	-514.70754	-88.06596	1205.48915	-814.78944	-60.04401	1156.62396	-640.06338	-57.65565	1156.29169	-669.95969	-42.82390	1154.37436	-411.31295	31.68540	952.85773	-352.01746	41.38540	1015.01567	-299.73613	97.59828	1091.37931	-399.18170	146.63067	1151.18992	-498.88159	181.35910	1149.96365	-488.27083	-41.76355	1144.26706	-895.04400	75.14361	937.04054	-916.00817	71.27910	997.71333	-977.42980	106.25527	1068.42539	-901.64599	169.06620	1149.77060	-800.41559	200.27843	1148.11450	-816.04017	-422.40849	810.67209	-516.67799	-441.72740	796.55530	-721.76513	-418.19265	803.36649	-533.71526	-432.15426	802.60387	-695.04581	
333	3.32000000	-197.10020	492.81070	-415.39998	-152.67019	421.45245	-426.55680	-265.61955	96.58971	-416.97976	-336.29858	62.72385	-452.41411	-163.95437	44.95853	-382.77450	-116.95450	72.49122	-437.54968	-275.53084	500.98230	-929.67929	-236.73535	416.20559	-970.36996	-299.68432	105.39605	-1004.61926	-349.70013	57.36759	-954.35061	-197.26029	57.33295	-1058.72028	-151.91631	95.56761	-1018.68815	-190.21302	313.42328	-401.21586	-227.97954	445.77703	-399.43413	-260.08077	337.67174	-390.88181	-321.93603	425.15204	-942.01858	-333.54343	307.68883	-977.67934	-325.40250	789.96240	-429.70105	-265.61892	695.36903	-422.17766	-299.43561	650.12707	-386.31470	-418.66386	730.91259	-403.49015	-351.96018	634.58459	-396.63269	-395.04870	740.81080	-870.39689	-313.35437	634.98048	-903.32871	-472.41055	666.10565	-823.43571	-388.72564	564.20923	-872.89534	-317.06625	824.69228	-506.82889	-444.88298	962.68089	-577.17476	-341.29069	795.42527	-747.33225	-453.66529	961.96712	-674.01037	-179.52747	1230.86546	-662.84036	-77.01163	1202.90828	-513.00052	-84.31779	1194.51525	-811.68518	-58.31811	1144.80869	-637.42005	-54.89670	1144.25893	-667.18964	-38.30307	1143.67068	-410.16255	38.28780	943.17746	-351.28296	47.90210	1005.55978	-299.13236	102.62665	1082.02780	-399.37692	150.55696	1141.87005	-499.49582	185.45976	1141.06991	-488.78633	-38.01947	1134.10566	-892.13067	79.65673	927.87787	-913.34613	75.22588	988.23242	-974.90610	110.13454	1059.11927	-899.08382	172.77002	1140.54290	-797.90221	204.06246	1138.70845	-813.16070	-425.33288	805.88725	-512.80471	-446.27567	790.39341	-717.60703	-421.21194	798.03092	-530.62371	-435.72823	796.85203	-690.68090	
334	3.33000000	-194.57199	491.84037	-412.63835	-149.75663	419.64601	-424.21977	-265.44609	96.38572	-416.58986	-336.23892	62.69180	-452.41073	-163.91307	44.80623	-382.56055	-116.94717	72.30344	-437.28381	-275.05812	501.06008	-930.27608	-236.17884	415.80910	-971.58200	-299.68717	105.34083	-1005.57424	-349.26625	57.40771	-954.18828	-198.11413	57.22778	-1060.98589	-152.36243	95.50568	-1021.32361	-188.36594	312.35778	-399.53833	-223.50771	443.56385	-397.23677	-258.15639	337.28373	-389.12101	-321.43323	424.84457	-942.79281	-333.15221	307.62178	-978.44183	-327.58559	786.90025	-426.20796	-266.51774	692.99005	-418.88764	-299.56595	647.53959	-383.09498	-419.97540	726.36410	-400.31939	-351.98523	630.95016	-393.68998	-398.73550	738.31371	-868.10352	-315.19210	634.29883	-902.38960	-474.31320	661.57306	-821.08186	-388.99777	561.75875	-872.23216	-319.04187	818.74669	-504.24631	-446.34574	957.11211	-574.75422	-346.91671	787.10804	-741.14821	-455.35184	956.13402	-671.19620	-176.51629	1221.13685	-660.68667	-73.45019	1191.45482	-511.76507	-80.84456	1183.55077	-808.73297	-56.68679	1132.91524	-635.27907	-53.13567	1131.85433	-665.43223	-33.92677	1132.80474	-409.15351	43.97376	933.27180	-350.69957	53.88974	995.76904	-298.64916	107.52790	1072.24626	-399.83277	154.27998	1132.26899	-500.05257	189.21904	1131.44114	-490.20606	-34.71932	1123.95907	-889.26095	83.25754	918.11395	-911.58742	78.79941	978.58265	-972.23968	113.65897	1049.61626	-896.49867	176.19746	1130.98042	-795.26152	207.50946	1129.12258	-810.47943	-427.94110	801.70622	-507.73146	-451.28159	783.44714	-712.04581	-424.22138	792.16795	-526.97206	-438.98605	790.56751	-685.10783	
